<svg xmlns="http://www.w3.org/2000/svg" viewBox="0 0 32 32">
  <rect width="32" height="32" rx="7" fill="#0a0a0a"/>
  <!-- Logo The Lamp: ampolleta inclinada con casquillo azul -->
  <g transform="translate(4 4) scale(1.02)" fill="none">
    <g transform="rotate(35 12 12)">
      <path d="M12 2.6a6.6 6.6 0 0 1 6.6 6.6c0 2.3-1.1 3.6-2.2 4.8-.7.8-1.2 1.5-1.4 2.4h-6c-.2-.9-.7-1.6-1.4-2.4-1.1-1.2-2.2-2.5-2.2-4.8A6.6 6.6 0 0 1 12 2.6Z" stroke="#f0f0f0" stroke-width="1.7" stroke-linejoin="round"/>
      <path d="M10.1 8.2 13.6 11.7" stroke="#f0f0f0" stroke-width="1.7" stroke-linecap="round"/>
      <path d="M9.7 18.9h4.6" stroke="#00d4cc" stroke-width="1.9" stroke-linecap="round"/>
      <path d="M10.2 21.3h3.6" stroke="#00d4cc" stroke-width="1.9" stroke-linecap="round"/>
    </g>
  </g>
</svg>
